<mxfile host="Electron" agent="Mozilla/5.0 (Windows NT 10.0; Win64; x64) AppleWebKit/537.36 (KHTML, like Gecko) draw.io/24.7.5 Chrome/126.0.6478.183 Electron/31.3.0 Safari/537.36" version="24.7.5" pages="3">
  <diagram id="M0KZEntwinwYx1qEsh_D" name="requisição">
    <mxGraphModel dx="3834" dy="2512" grid="1" gridSize="10" guides="1" tooltips="1" connect="1" arrows="1" fold="1" page="1" pageScale="1" pageWidth="827" pageHeight="1169" math="0" shadow="0">
      <root>
        <mxCell id="0" />
        <mxCell id="1" parent="0" />
        <mxCell id="dsnvt67MsWORtp3JaH3x-1" value="" style="rounded=0;whiteSpace=wrap;html=1;movable=1;resizable=1;rotatable=1;deletable=1;editable=1;locked=0;connectable=1;" parent="1" vertex="1">
          <mxGeometry x="-1020" y="5" width="350" height="1775" as="geometry" />
        </mxCell>
        <mxCell id="dsnvt67MsWORtp3JaH3x-2" value="" style="rounded=0;whiteSpace=wrap;html=1;movable=1;resizable=1;rotatable=1;deletable=1;editable=1;locked=0;connectable=1;" parent="1" vertex="1">
          <mxGeometry x="-670" y="5" width="360" height="1775" as="geometry" />
        </mxCell>
        <mxCell id="dsnvt67MsWORtp3JaH3x-3" value="" style="rounded=0;whiteSpace=wrap;html=1;movable=1;resizable=1;rotatable=1;deletable=1;editable=1;locked=0;connectable=1;" parent="1" vertex="1">
          <mxGeometry x="-320" y="5" width="350" height="1775" as="geometry" />
        </mxCell>
        <mxCell id="dsnvt67MsWORtp3JaH3x-4" value="" style="rounded=0;whiteSpace=wrap;html=1;movable=1;resizable=1;rotatable=1;deletable=1;editable=1;locked=0;connectable=1;" parent="1" vertex="1">
          <mxGeometry x="30" y="5" width="350" height="1775" as="geometry" />
        </mxCell>
        <mxCell id="dsnvt67MsWORtp3JaH3x-5" value="CLIENTE" style="rounded=0;whiteSpace=wrap;html=1;fontSize=80;" parent="1" vertex="1">
          <mxGeometry x="-1020" y="5" width="350" height="114" as="geometry" />
        </mxCell>
        <mxCell id="dsnvt67MsWORtp3JaH3x-6" value="N1" style="rounded=0;whiteSpace=wrap;html=1;fontSize=80;" parent="1" vertex="1">
          <mxGeometry x="-670" y="5" width="350" height="114" as="geometry" />
        </mxCell>
        <mxCell id="dsnvt67MsWORtp3JaH3x-7" value="N2" style="rounded=0;whiteSpace=wrap;html=1;fontSize=80;" parent="1" vertex="1">
          <mxGeometry x="-320" y="5" width="350" height="114" as="geometry" />
        </mxCell>
        <mxCell id="dsnvt67MsWORtp3JaH3x-8" value="N3" style="rounded=0;whiteSpace=wrap;html=1;fontSize=80;" parent="1" vertex="1">
          <mxGeometry x="30" y="5" width="350" height="114" as="geometry" />
        </mxCell>
        <mxCell id="dsnvt67MsWORtp3JaH3x-9" style="edgeStyle=orthogonalEdgeStyle;rounded=0;orthogonalLoop=1;jettySize=auto;html=1;entryX=0.5;entryY=0;entryDx=0;entryDy=0;" parent="1" source="dsnvt67MsWORtp3JaH3x-10" target="dsnvt67MsWORtp3JaH3x-14" edge="1">
          <mxGeometry relative="1" as="geometry" />
        </mxCell>
        <mxCell id="dsnvt67MsWORtp3JaH3x-10" value="&lt;font&gt;O cliente faz requisição de um item&lt;/font&gt;" style="rounded=1;whiteSpace=wrap;html=1;arcSize=70;fontSize=20;" parent="1" vertex="1">
          <mxGeometry x="-983" y="142" width="282" height="102" as="geometry" />
        </mxCell>
        <mxCell id="dsnvt67MsWORtp3JaH3x-11" style="edgeStyle=orthogonalEdgeStyle;rounded=0;orthogonalLoop=1;jettySize=auto;html=1;entryX=0.5;entryY=0;entryDx=0;entryDy=0;" parent="1" source="dsnvt67MsWORtp3JaH3x-12" target="dsnvt67MsWORtp3JaH3x-19" edge="1">
          <mxGeometry relative="1" as="geometry" />
        </mxCell>
        <mxCell id="dsnvt67MsWORtp3JaH3x-12" value="Registro, classificação e priorização do chamado" style="rounded=0;whiteSpace=wrap;html=1;fontSize=20;" parent="1" vertex="1">
          <mxGeometry x="-603.59" y="155" width="247.89" height="96" as="geometry" />
        </mxCell>
        <mxCell id="dsnvt67MsWORtp3JaH3x-13" style="edgeStyle=orthogonalEdgeStyle;rounded=0;orthogonalLoop=1;jettySize=auto;html=1;entryX=0;entryY=0.5;entryDx=0;entryDy=0;" parent="1" source="dsnvt67MsWORtp3JaH3x-14" target="dsnvt67MsWORtp3JaH3x-12" edge="1">
          <mxGeometry relative="1" as="geometry">
            <Array as="points">
              <mxPoint x="-650" y="329" />
              <mxPoint x="-650" y="203" />
            </Array>
          </mxGeometry>
        </mxCell>
        <mxCell id="dsnvt67MsWORtp3JaH3x-14" value="Abre o chamado" style="rounded=0;whiteSpace=wrap;html=1;fontSize=20;" parent="1" vertex="1">
          <mxGeometry x="-949" y="279" width="214" height="100" as="geometry" />
        </mxCell>
        <mxCell id="dsnvt67MsWORtp3JaH3x-15" style="edgeStyle=orthogonalEdgeStyle;rounded=0;orthogonalLoop=1;jettySize=auto;html=1;entryX=1;entryY=0.5;entryDx=0;entryDy=0;" parent="1" source="dsnvt67MsWORtp3JaH3x-19" target="dsnvt67MsWORtp3JaH3x-20" edge="1">
          <mxGeometry relative="1" as="geometry">
            <Array as="points">
              <mxPoint x="-659" y="386" />
              <mxPoint x="-659" y="464" />
            </Array>
          </mxGeometry>
        </mxCell>
        <mxCell id="dsnvt67MsWORtp3JaH3x-16" value="Não" style="edgeLabel;html=1;align=center;verticalAlign=middle;resizable=0;points=[];fontSize=25;" parent="dsnvt67MsWORtp3JaH3x-15" vertex="1" connectable="0">
          <mxGeometry x="-0.094" y="-3" relative="1" as="geometry">
            <mxPoint x="47" y="-64" as="offset" />
          </mxGeometry>
        </mxCell>
        <mxCell id="dsnvt67MsWORtp3JaH3x-17" style="edgeStyle=orthogonalEdgeStyle;rounded=0;orthogonalLoop=1;jettySize=auto;html=1;entryX=0.5;entryY=0;entryDx=0;entryDy=0;" parent="1" source="dsnvt67MsWORtp3JaH3x-19" target="dsnvt67MsWORtp3JaH3x-23" edge="1">
          <mxGeometry relative="1" as="geometry" />
        </mxCell>
        <mxCell id="dsnvt67MsWORtp3JaH3x-18" value="SIM" style="edgeLabel;html=1;align=center;verticalAlign=middle;resizable=0;points=[];fontSize=25;" parent="dsnvt67MsWORtp3JaH3x-17" vertex="1" connectable="0">
          <mxGeometry x="-0.0492" y="-7" relative="1" as="geometry">
            <mxPoint x="44" y="1" as="offset" />
          </mxGeometry>
        </mxCell>
        <mxCell id="dsnvt67MsWORtp3JaH3x-19" value="Verificar se o cliente tem&amp;nbsp;&lt;div&gt;permissão para o item&lt;/div&gt;" style="rhombus;whiteSpace=wrap;html=1;fontSize=20;verticalAlign=middle;spacing=8;spacingTop=16;" parent="1" vertex="1">
          <mxGeometry x="-601.4" y="279" width="243.5" height="213" as="geometry" />
        </mxCell>
        <mxCell id="dsnvt67MsWORtp3JaH3x-20" value="Avisa que o cliente não tem permissão e passa os protocolos para requisição do item" style="rounded=0;whiteSpace=wrap;html=1;fontSize=20;" parent="1" vertex="1">
          <mxGeometry x="-949" y="415" width="212" height="98" as="geometry" />
        </mxCell>
        <mxCell id="dsnvt67MsWORtp3JaH3x-21" style="edgeStyle=orthogonalEdgeStyle;rounded=0;orthogonalLoop=1;jettySize=auto;html=1;entryX=1;entryY=0.5;entryDx=0;entryDy=0;" parent="1" source="dsnvt67MsWORtp3JaH3x-23" target="dsnvt67MsWORtp3JaH3x-24" edge="1">
          <mxGeometry relative="1" as="geometry">
            <Array as="points">
              <mxPoint x="-690" y="626" />
              <mxPoint x="-690" y="578" />
            </Array>
          </mxGeometry>
        </mxCell>
        <mxCell id="dsnvt67MsWORtp3JaH3x-22" style="edgeStyle=orthogonalEdgeStyle;rounded=0;orthogonalLoop=1;jettySize=auto;html=1;entryX=0.5;entryY=0;entryDx=0;entryDy=0;" parent="1" source="dsnvt67MsWORtp3JaH3x-23" target="dsnvt67MsWORtp3JaH3x-28" edge="1">
          <mxGeometry relative="1" as="geometry" />
        </mxCell>
        <mxCell id="dsnvt67MsWORtp3JaH3x-23" value="Verificar se possuí no estoque/armazenamento" style="rhombus;whiteSpace=wrap;html=1;fontSize=20;spacingTop=20;" parent="1" vertex="1">
          <mxGeometry x="-607.83" y="522.5" width="256.39" height="207.5" as="geometry" />
        </mxCell>
        <mxCell id="PJLUn4ZD3CIhlPu4qXrB-8" style="edgeStyle=orthogonalEdgeStyle;rounded=0;orthogonalLoop=1;jettySize=auto;html=1;" parent="1" source="dsnvt67MsWORtp3JaH3x-24" edge="1">
          <mxGeometry relative="1" as="geometry">
            <mxPoint x="-1120" y="578" as="targetPoint" />
          </mxGeometry>
        </mxCell>
        <mxCell id="dsnvt67MsWORtp3JaH3x-24" value="Item é passado ao cliente" style="rounded=0;whiteSpace=wrap;html=1;fontSize=20;" parent="1" vertex="1">
          <mxGeometry x="-949" y="538" width="214" height="80" as="geometry" />
        </mxCell>
        <mxCell id="dsnvt67MsWORtp3JaH3x-25" value="Não" style="edgeLabel;html=1;align=center;verticalAlign=middle;resizable=0;points=[];fontSize=25;" parent="1" vertex="1" connectable="0">
          <mxGeometry x="-420.0033333333335" y="522.5" as="geometry">
            <mxPoint x="3" y="232" as="offset" />
          </mxGeometry>
        </mxCell>
        <mxCell id="dsnvt67MsWORtp3JaH3x-26" style="edgeStyle=orthogonalEdgeStyle;rounded=0;orthogonalLoop=1;jettySize=auto;html=1;entryX=1;entryY=0.5;entryDx=0;entryDy=0;" parent="1" source="dsnvt67MsWORtp3JaH3x-28" target="dsnvt67MsWORtp3JaH3x-30" edge="1">
          <mxGeometry relative="1" as="geometry">
            <Array as="points">
              <mxPoint x="-690" y="870" />
              <mxPoint x="-690" y="870" />
            </Array>
          </mxGeometry>
        </mxCell>
        <mxCell id="dsnvt67MsWORtp3JaH3x-27" style="edgeStyle=orthogonalEdgeStyle;rounded=0;orthogonalLoop=1;jettySize=auto;html=1;entryX=0.5;entryY=0;entryDx=0;entryDy=0;" parent="1" source="dsnvt67MsWORtp3JaH3x-28" target="PJLUn4ZD3CIhlPu4qXrB-2" edge="1">
          <mxGeometry relative="1" as="geometry">
            <mxPoint x="-479.727272727273" y="977.0556589662629" as="targetPoint" />
          </mxGeometry>
        </mxCell>
        <mxCell id="dsnvt67MsWORtp3JaH3x-28" value="Verifica se possui&amp;nbsp; orçamento&lt;div&gt;para a requisção do item&lt;/div&gt;" style="rhombus;whiteSpace=wrap;html=1;fontSize=20;spacingTop=6;" parent="1" vertex="1">
          <mxGeometry x="-616.3800000000001" y="790" width="273.5" height="160" as="geometry" />
        </mxCell>
        <mxCell id="dsnvt67MsWORtp3JaH3x-29" value="SIM" style="edgeLabel;html=1;align=center;verticalAlign=middle;resizable=0;points=[];fontSize=25;" parent="1" vertex="1" connectable="0">
          <mxGeometry x="-629.9999999999995" y="350.0033333333332" as="geometry">
            <mxPoint x="13" y="232" as="offset" />
          </mxGeometry>
        </mxCell>
        <mxCell id="PJLUn4ZD3CIhlPu4qXrB-9" style="edgeStyle=orthogonalEdgeStyle;rounded=0;orthogonalLoop=1;jettySize=auto;html=1;" parent="1" source="dsnvt67MsWORtp3JaH3x-30" edge="1">
          <mxGeometry relative="1" as="geometry">
            <mxPoint x="-1120" y="870" as="targetPoint" />
          </mxGeometry>
        </mxCell>
        <mxCell id="dsnvt67MsWORtp3JaH3x-30" value="É avisado ao cliente que não possuí orçamento para a compra o item pedido" style="rounded=0;whiteSpace=wrap;html=1;fontSize=20;" parent="1" vertex="1">
          <mxGeometry x="-949" y="821" width="219" height="98" as="geometry" />
        </mxCell>
        <mxCell id="dsnvt67MsWORtp3JaH3x-31" value="Não" style="edgeLabel;html=1;align=center;verticalAlign=middle;resizable=0;points=[];fontSize=25;" parent="1" vertex="1" connectable="0">
          <mxGeometry x="-630.0033333333334" y="584" as="geometry">
            <mxPoint x="3" y="232" as="offset" />
          </mxGeometry>
        </mxCell>
        <mxCell id="dsnvt67MsWORtp3JaH3x-39" value="" style="endArrow=none;html=1;rounded=0;entryX=0;entryY=0.5;entryDx=0;entryDy=0;exitX=0;exitY=0.5;exitDx=0;exitDy=0;" parent="1" source="dsnvt67MsWORtp3JaH3x-64" target="dsnvt67MsWORtp3JaH3x-20" edge="1">
          <mxGeometry width="50" height="50" relative="1" as="geometry">
            <mxPoint x="-1046" y="463" as="sourcePoint" />
            <mxPoint x="-985" y="638" as="targetPoint" />
            <Array as="points">
              <mxPoint x="-1120" y="1442" />
              <mxPoint x="-1120" y="960" />
              <mxPoint x="-1120" y="464" />
            </Array>
          </mxGeometry>
        </mxCell>
        <mxCell id="dsnvt67MsWORtp3JaH3x-45" value="FIM" style="ellipse;whiteSpace=wrap;html=1;aspect=fixed;fillColor=#e51400;fontColor=#ffffff;strokeColor=#B20000;" parent="1" vertex="1">
          <mxGeometry x="-922" y="1830" width="116" height="116" as="geometry" />
        </mxCell>
        <mxCell id="dsnvt67MsWORtp3JaH3x-50" value="SIM" style="edgeLabel;html=1;align=center;verticalAlign=middle;resizable=0;points=[];fontSize=25;" parent="1" vertex="1" connectable="0">
          <mxGeometry x="-439.99999999999955" y="738.0033333333332" as="geometry">
            <mxPoint x="13" y="232" as="offset" />
          </mxGeometry>
        </mxCell>
        <mxCell id="PJLUn4ZD3CIhlPu4qXrB-22" style="edgeStyle=orthogonalEdgeStyle;rounded=0;orthogonalLoop=1;jettySize=auto;html=1;entryX=0.5;entryY=0;entryDx=0;entryDy=0;" parent="1" source="dsnvt67MsWORtp3JaH3x-64" target="PJLUn4ZD3CIhlPu4qXrB-19" edge="1">
          <mxGeometry relative="1" as="geometry" />
        </mxCell>
        <mxCell id="dsnvt67MsWORtp3JaH3x-64" value="É inserido na base de conhecimento todos os passos realizados na requisição" style="rounded=0;whiteSpace=wrap;html=1;fontSize=20;" parent="1" vertex="1">
          <mxGeometry x="-977" y="1390" width="222" height="104" as="geometry" />
        </mxCell>
        <mxCell id="1-PjCsDT0IKxnKkx6_UJ-1" value="&lt;font style=&quot;font-size: 65px;&quot;&gt;REQUISIÇÃO&lt;/font&gt;" style="rounded=0;whiteSpace=wrap;html=1;" parent="1" vertex="1">
          <mxGeometry x="-1020" y="-60" width="1400" height="60" as="geometry" />
        </mxCell>
        <mxCell id="PJLUn4ZD3CIhlPu4qXrB-4" value="" style="edgeStyle=orthogonalEdgeStyle;rounded=0;orthogonalLoop=1;jettySize=auto;html=1;" parent="1" source="PJLUn4ZD3CIhlPu4qXrB-2" target="PJLUn4ZD3CIhlPu4qXrB-3" edge="1">
          <mxGeometry relative="1" as="geometry" />
        </mxCell>
        <mxCell id="PJLUn4ZD3CIhlPu4qXrB-2" value="Envia a solicitação ao fornecedor para a requisição do item pedido" style="rounded=0;whiteSpace=wrap;html=1;fontSize=20;" parent="1" vertex="1">
          <mxGeometry x="-589.15" y="1000" width="219" height="98" as="geometry" />
        </mxCell>
        <mxCell id="PJLUn4ZD3CIhlPu4qXrB-5" style="edgeStyle=orthogonalEdgeStyle;rounded=0;orthogonalLoop=1;jettySize=auto;html=1;entryX=1;entryY=0.5;entryDx=0;entryDy=0;" parent="1" source="PJLUn4ZD3CIhlPu4qXrB-3" target="PJLUn4ZD3CIhlPu4qXrB-6" edge="1">
          <mxGeometry relative="1" as="geometry">
            <mxPoint x="-790" y="1291.5" as="targetPoint" />
            <Array as="points">
              <mxPoint x="-650" y="1290" />
              <mxPoint x="-650" y="1291" />
            </Array>
          </mxGeometry>
        </mxCell>
        <mxCell id="PJLUn4ZD3CIhlPu4qXrB-15" value="" style="edgeStyle=orthogonalEdgeStyle;rounded=0;orthogonalLoop=1;jettySize=auto;html=1;" parent="1" source="PJLUn4ZD3CIhlPu4qXrB-3" target="PJLUn4ZD3CIhlPu4qXrB-14" edge="1">
          <mxGeometry relative="1" as="geometry" />
        </mxCell>
        <mxCell id="PJLUn4ZD3CIhlPu4qXrB-3" value="Solicitação de orçamento aprovada pelo fornecedor" style="rhombus;whiteSpace=wrap;html=1;fontSize=20;rounded=0;" parent="1" vertex="1">
          <mxGeometry x="-574.8199999999999" y="1190" width="190.35" height="200" as="geometry" />
        </mxCell>
        <mxCell id="PJLUn4ZD3CIhlPu4qXrB-7" style="edgeStyle=orthogonalEdgeStyle;rounded=0;orthogonalLoop=1;jettySize=auto;html=1;" parent="1" source="PJLUn4ZD3CIhlPu4qXrB-6" edge="1">
          <mxGeometry relative="1" as="geometry">
            <mxPoint x="-1120" y="1279" as="targetPoint" />
            <Array as="points">
              <mxPoint x="-1120" y="1279" />
            </Array>
          </mxGeometry>
        </mxCell>
        <mxCell id="PJLUn4ZD3CIhlPu4qXrB-6" value="&lt;font style=&quot;font-size: 18px;&quot;&gt;Avisa o cliente que o orçamento não foi aprovado pelo fornecedor&lt;/font&gt;" style="rounded=0;whiteSpace=wrap;html=1;" parent="1" vertex="1">
          <mxGeometry x="-951.5" y="1230" width="213" height="97.25" as="geometry" />
        </mxCell>
        <mxCell id="PJLUn4ZD3CIhlPu4qXrB-17" value="" style="edgeStyle=orthogonalEdgeStyle;rounded=0;orthogonalLoop=1;jettySize=auto;html=1;" parent="1" source="PJLUn4ZD3CIhlPu4qXrB-14" target="PJLUn4ZD3CIhlPu4qXrB-16" edge="1">
          <mxGeometry relative="1" as="geometry" />
        </mxCell>
        <mxCell id="PJLUn4ZD3CIhlPu4qXrB-14" value="realiza a compra do item" style="whiteSpace=wrap;html=1;fontSize=20;rounded=0;" parent="1" vertex="1">
          <mxGeometry x="-574.81" y="1450" width="190.36" height="100" as="geometry" />
        </mxCell>
        <mxCell id="PJLUn4ZD3CIhlPu4qXrB-23" style="edgeStyle=orthogonalEdgeStyle;rounded=0;orthogonalLoop=1;jettySize=auto;html=1;entryX=1;entryY=0.5;entryDx=0;entryDy=0;" parent="1" source="PJLUn4ZD3CIhlPu4qXrB-16" target="dsnvt67MsWORtp3JaH3x-64" edge="1">
          <mxGeometry relative="1" as="geometry">
            <Array as="points">
              <mxPoint x="-630" y="1650" />
              <mxPoint x="-630" y="1442" />
            </Array>
          </mxGeometry>
        </mxCell>
        <mxCell id="PJLUn4ZD3CIhlPu4qXrB-16" value="Atualiza estoque&amp;nbsp;&lt;div&gt;e entrega ao cliente&lt;/div&gt;" style="whiteSpace=wrap;html=1;fontSize=20;rounded=0;" parent="1" vertex="1">
          <mxGeometry x="-559.84" y="1610" width="160.37" height="80" as="geometry" />
        </mxCell>
        <mxCell id="PJLUn4ZD3CIhlPu4qXrB-20" style="edgeStyle=orthogonalEdgeStyle;rounded=0;orthogonalLoop=1;jettySize=auto;html=1;entryX=0.5;entryY=0;entryDx=0;entryDy=0;" parent="1" source="PJLUn4ZD3CIhlPu4qXrB-19" target="dsnvt67MsWORtp3JaH3x-45" edge="1">
          <mxGeometry relative="1" as="geometry" />
        </mxCell>
        <mxCell id="PJLUn4ZD3CIhlPu4qXrB-19" value="&lt;font style=&quot;font-size: 30px;&quot;&gt;Finaliza pedido&lt;/font&gt;" style="rounded=0;whiteSpace=wrap;html=1;" parent="1" vertex="1">
          <mxGeometry x="-973" y="1610" width="218" height="100" as="geometry" />
        </mxCell>
        <mxCell id="PJLUn4ZD3CIhlPu4qXrB-24" value="Não" style="edgeLabel;html=1;align=center;verticalAlign=middle;resizable=0;points=[];fontSize=25;" parent="1" vertex="1" connectable="0">
          <mxGeometry x="-630.0033333333334" y="1040" as="geometry">
            <mxPoint x="3" y="232" as="offset" />
          </mxGeometry>
        </mxCell>
        <mxCell id="PJLUn4ZD3CIhlPu4qXrB-25" value="SIM" style="edgeLabel;html=1;align=center;verticalAlign=middle;resizable=0;points=[];fontSize=25;" parent="1" vertex="1" connectable="0">
          <mxGeometry x="-469.99999999999955" y="1180.003333333333" as="geometry">
            <mxPoint x="13" y="232" as="offset" />
          </mxGeometry>
        </mxCell>
      </root>
    </mxGraphModel>
  </diagram>
  <diagram name="incidente" id="sii6xtMDSqnDwptgTPa_">
    <mxGraphModel dx="4609" dy="1876" grid="0" gridSize="10" guides="1" tooltips="1" connect="1" arrows="1" fold="1" page="0" pageScale="1" pageWidth="827" pageHeight="1169" math="0" shadow="0">
      <root>
        <mxCell id="0" />
        <mxCell id="1" parent="0" />
        <mxCell id="SJMVSRO1iNUhfS_U9vJs-1" value="" style="rounded=0;whiteSpace=wrap;html=1;movable=0;resizable=0;rotatable=0;deletable=0;editable=0;locked=1;connectable=0;" parent="1" vertex="1">
          <mxGeometry x="-1020" y="5" width="350" height="1500" as="geometry" />
        </mxCell>
        <mxCell id="R6a7jAGX98T_tNKUyX50-1" value="" style="rounded=0;whiteSpace=wrap;html=1;movable=0;resizable=0;rotatable=0;deletable=0;editable=0;locked=1;connectable=0;" parent="1" vertex="1">
          <mxGeometry x="-670" y="5" width="350" height="1500" as="geometry" />
        </mxCell>
        <mxCell id="R6a7jAGX98T_tNKUyX50-3" value="" style="rounded=0;whiteSpace=wrap;html=1;movable=0;resizable=0;rotatable=0;deletable=0;editable=0;locked=1;connectable=0;" parent="1" vertex="1">
          <mxGeometry x="-320" y="5" width="350" height="1500" as="geometry" />
        </mxCell>
        <mxCell id="R6a7jAGX98T_tNKUyX50-4" value="" style="rounded=0;whiteSpace=wrap;html=1;movable=0;resizable=0;rotatable=0;deletable=0;editable=0;locked=1;connectable=0;" parent="1" vertex="1">
          <mxGeometry x="30" y="5" width="350" height="1500" as="geometry" />
        </mxCell>
        <mxCell id="y4WzoanB2UGmF15g63pv-64" value="" style="rounded=0;whiteSpace=wrap;html=1;movable=1;resizable=1;rotatable=1;deletable=1;editable=1;locked=0;connectable=1;" vertex="1" parent="1">
          <mxGeometry x="-1342" y="18.5" width="570" height="2001.5" as="geometry" />
        </mxCell>
        <mxCell id="y4WzoanB2UGmF15g63pv-65" value="" style="rounded=0;whiteSpace=wrap;html=1;movable=1;resizable=1;rotatable=1;deletable=1;editable=1;locked=0;connectable=1;" vertex="1" parent="1">
          <mxGeometry x="-770" y="15" width="690" height="2005" as="geometry" />
        </mxCell>
        <mxCell id="y4WzoanB2UGmF15g63pv-66" value="" style="rounded=0;whiteSpace=wrap;html=1;movable=1;resizable=1;rotatable=1;deletable=1;editable=1;locked=0;connectable=1;" vertex="1" parent="1">
          <mxGeometry x="-80" width="680" height="2020" as="geometry" />
        </mxCell>
        <mxCell id="y4WzoanB2UGmF15g63pv-67" value="" style="rounded=0;whiteSpace=wrap;html=1;movable=1;resizable=1;rotatable=1;deletable=1;editable=1;locked=0;connectable=1;" vertex="1" parent="1">
          <mxGeometry x="579" y="58" width="700" height="1962" as="geometry" />
        </mxCell>
        <mxCell id="y4WzoanB2UGmF15g63pv-68" value="CLIENTE" style="rounded=0;whiteSpace=wrap;html=1;fontSize=80;" vertex="1" parent="1">
          <mxGeometry x="-1340" y="14" width="566" height="114" as="geometry" />
        </mxCell>
        <mxCell id="y4WzoanB2UGmF15g63pv-69" value="N1" style="rounded=0;whiteSpace=wrap;html=1;fontSize=80;" vertex="1" parent="1">
          <mxGeometry x="-770" y="15" width="691" height="114" as="geometry" />
        </mxCell>
        <mxCell id="y4WzoanB2UGmF15g63pv-70" value="N2" style="rounded=0;whiteSpace=wrap;html=1;fontSize=80;" vertex="1" parent="1">
          <mxGeometry x="-80" y="15" width="660" height="114" as="geometry" />
        </mxCell>
        <mxCell id="y4WzoanB2UGmF15g63pv-71" value="N3" style="rounded=0;whiteSpace=wrap;html=1;fontSize=80;" vertex="1" parent="1">
          <mxGeometry x="580" y="15" width="700" height="114" as="geometry" />
        </mxCell>
        <mxCell id="y4WzoanB2UGmF15g63pv-72" style="edgeStyle=orthogonalEdgeStyle;rounded=0;orthogonalLoop=1;jettySize=auto;html=1;" edge="1" parent="1" source="y4WzoanB2UGmF15g63pv-73" target="y4WzoanB2UGmF15g63pv-75">
          <mxGeometry relative="1" as="geometry">
            <mxPoint x="-1039.2499999999995" y="441.49999999999955" as="targetPoint" />
          </mxGeometry>
        </mxCell>
        <mxCell id="y4WzoanB2UGmF15g63pv-73" value="Não esta conseguindo acessar as dash boards" style="rounded=1;whiteSpace=wrap;html=1;arcSize=70;fontSize=20;" vertex="1" parent="1">
          <mxGeometry x="-1179.25" y="160" width="282" height="102" as="geometry" />
        </mxCell>
        <mxCell id="y4WzoanB2UGmF15g63pv-74" style="edgeStyle=orthogonalEdgeStyle;rounded=0;orthogonalLoop=1;jettySize=auto;html=1;entryX=0.5;entryY=0;entryDx=0;entryDy=0;" edge="1" parent="1" source="y4WzoanB2UGmF15g63pv-75">
          <mxGeometry relative="1" as="geometry">
            <mxPoint x="-469.6400000000003" y="378" as="targetPoint" />
          </mxGeometry>
        </mxCell>
        <mxCell id="y4WzoanB2UGmF15g63pv-75" value="Registro, classificação e priorização do chamado" style="rounded=0;whiteSpace=wrap;html=1;fontSize=20;" vertex="1" parent="1">
          <mxGeometry x="-593.59" y="165" width="247.89" height="96" as="geometry" />
        </mxCell>
        <mxCell id="y4WzoanB2UGmF15g63pv-79" style="edgeStyle=orthogonalEdgeStyle;rounded=0;orthogonalLoop=1;jettySize=auto;html=1;entryX=0.5;entryY=0;entryDx=0;entryDy=0;" edge="1" parent="1" source="y4WzoanB2UGmF15g63pv-81" target="y4WzoanB2UGmF15g63pv-87">
          <mxGeometry relative="1" as="geometry" />
        </mxCell>
        <mxCell id="y4WzoanB2UGmF15g63pv-80" style="edgeStyle=orthogonalEdgeStyle;rounded=0;orthogonalLoop=1;jettySize=auto;html=1;entryX=1;entryY=0.5;entryDx=0;entryDy=0;" edge="1" parent="1" source="y4WzoanB2UGmF15g63pv-81" target="y4WzoanB2UGmF15g63pv-83">
          <mxGeometry relative="1" as="geometry" />
        </mxCell>
        <mxCell id="y4WzoanB2UGmF15g63pv-81" value="O cliente está logado?" style="rhombus;whiteSpace=wrap;html=1;fontSize=20;spacingTop=20;" vertex="1" parent="1">
          <mxGeometry x="-597.09" y="664" width="256.39" height="153" as="geometry" />
        </mxCell>
        <mxCell id="y4WzoanB2UGmF15g63pv-82" style="edgeStyle=orthogonalEdgeStyle;rounded=0;orthogonalLoop=1;jettySize=auto;html=1;entryX=0;entryY=0.5;entryDx=0;entryDy=0;" edge="1" parent="1" source="y4WzoanB2UGmF15g63pv-83" target="y4WzoanB2UGmF15g63pv-93">
          <mxGeometry relative="1" as="geometry">
            <Array as="points">
              <mxPoint x="-1280" y="741" />
              <mxPoint x="-1280" y="1450" />
            </Array>
          </mxGeometry>
        </mxCell>
        <mxCell id="y4WzoanB2UGmF15g63pv-83" value="Fazer login na página" style="rounded=0;whiteSpace=wrap;html=1;fontSize=20;" vertex="1" parent="1">
          <mxGeometry x="-1197.25" y="700.5" width="265" height="80" as="geometry" />
        </mxCell>
        <mxCell id="y4WzoanB2UGmF15g63pv-84" value="Não" style="edgeLabel;html=1;align=center;verticalAlign=middle;resizable=0;points=[];fontSize=25;" vertex="1" connectable="0" parent="1">
          <mxGeometry x="-822.1933333333336" y="481.5" as="geometry">
            <mxPoint x="3" y="232" as="offset" />
          </mxGeometry>
        </mxCell>
        <mxCell id="y4WzoanB2UGmF15g63pv-85" style="edgeStyle=orthogonalEdgeStyle;rounded=0;orthogonalLoop=1;jettySize=auto;html=1;entryX=0.5;entryY=0;entryDx=0;entryDy=0;" edge="1" parent="1" source="y4WzoanB2UGmF15g63pv-87" target="y4WzoanB2UGmF15g63pv-93">
          <mxGeometry relative="1" as="geometry">
            <mxPoint x="-469.6300000000001" y="1170" as="targetPoint" />
          </mxGeometry>
        </mxCell>
        <mxCell id="y4WzoanB2UGmF15g63pv-86" style="edgeStyle=orthogonalEdgeStyle;rounded=0;orthogonalLoop=1;jettySize=auto;html=1;entryX=1;entryY=0.5;entryDx=0;entryDy=0;" edge="1" parent="1" source="y4WzoanB2UGmF15g63pv-87" target="y4WzoanB2UGmF15g63pv-89">
          <mxGeometry relative="1" as="geometry" />
        </mxCell>
        <mxCell id="y4WzoanB2UGmF15g63pv-87" value="Cliente está conectado na internet?" style="rhombus;whiteSpace=wrap;html=1;fontSize=20;spacingTop=6;" vertex="1" parent="1">
          <mxGeometry x="-605.8300000000002" y="891" width="273.5" height="160" as="geometry" />
        </mxCell>
        <mxCell id="y4WzoanB2UGmF15g63pv-88" style="edgeStyle=orthogonalEdgeStyle;rounded=0;orthogonalLoop=1;jettySize=auto;html=1;entryX=0;entryY=0.5;entryDx=0;entryDy=0;" edge="1" parent="1" source="y4WzoanB2UGmF15g63pv-89" target="y4WzoanB2UGmF15g63pv-93">
          <mxGeometry relative="1" as="geometry">
            <Array as="points">
              <mxPoint x="-1280" y="971" />
              <mxPoint x="-1280" y="1450" />
            </Array>
          </mxGeometry>
        </mxCell>
        <mxCell id="y4WzoanB2UGmF15g63pv-89" value="Conectar a uma internet" style="rounded=0;whiteSpace=wrap;html=1;fontSize=20;" vertex="1" parent="1">
          <mxGeometry x="-1199.75" y="926.75" width="267.5" height="88.5" as="geometry" />
        </mxCell>
        <mxCell id="y4WzoanB2UGmF15g63pv-90" value="Não" style="edgeLabel;html=1;align=center;verticalAlign=middle;resizable=0;points=[];fontSize=25;" vertex="1" connectable="0" parent="1">
          <mxGeometry x="-837.2533333333336" y="682.5" as="geometry">
            <mxPoint x="3" y="232" as="offset" />
          </mxGeometry>
        </mxCell>
        <mxCell id="y4WzoanB2UGmF15g63pv-91" style="edgeStyle=orthogonalEdgeStyle;rounded=0;orthogonalLoop=1;jettySize=auto;html=1;" edge="1" parent="1" source="y4WzoanB2UGmF15g63pv-93" target="y4WzoanB2UGmF15g63pv-107">
          <mxGeometry relative="1" as="geometry" />
        </mxCell>
        <mxCell id="y4WzoanB2UGmF15g63pv-92" style="edgeStyle=orthogonalEdgeStyle;rounded=0;orthogonalLoop=1;jettySize=auto;html=1;entryX=0;entryY=0.5;entryDx=0;entryDy=0;" edge="1" parent="1" source="y4WzoanB2UGmF15g63pv-93" target="y4WzoanB2UGmF15g63pv-120">
          <mxGeometry relative="1" as="geometry">
            <mxPoint x="111.52999999999975" y="561" as="targetPoint" />
            <Array as="points">
              <mxPoint y="1450" />
              <mxPoint y="447" />
            </Array>
          </mxGeometry>
        </mxCell>
        <mxCell id="y4WzoanB2UGmF15g63pv-93" value="Funcionou?" style="rhombus;whiteSpace=wrap;html=1;fontSize=20;" vertex="1" parent="1">
          <mxGeometry x="-592.39" y="1381" width="247" height="138" as="geometry" />
        </mxCell>
        <mxCell id="y4WzoanB2UGmF15g63pv-94" value="FIM" style="ellipse;whiteSpace=wrap;html=1;aspect=fixed;fillColor=#e51400;fontColor=#ffffff;strokeColor=#B20000;" vertex="1" parent="1">
          <mxGeometry x="-527.65" y="2060" width="116" height="116" as="geometry" />
        </mxCell>
        <mxCell id="y4WzoanB2UGmF15g63pv-95" value="Não" style="edgeLabel;html=1;align=center;verticalAlign=middle;resizable=0;points=[];fontSize=25;" vertex="1" connectable="0" parent="1">
          <mxGeometry x="-230.00333333333356" y="1190" as="geometry">
            <mxPoint x="3" y="232" as="offset" />
          </mxGeometry>
        </mxCell>
        <mxCell id="y4WzoanB2UGmF15g63pv-96" value="SIM" style="edgeLabel;html=1;align=center;verticalAlign=middle;resizable=0;points=[];fontSize=25;" vertex="1" connectable="0" parent="1">
          <mxGeometry x="-539.9999999999995" y="1340.003333333333" as="geometry">
            <mxPoint x="13" y="232" as="offset" />
          </mxGeometry>
        </mxCell>
        <mxCell id="y4WzoanB2UGmF15g63pv-102" value="&lt;span style=&quot;font-size: 70px;&quot;&gt;INCIDENTE&lt;/span&gt;" style="rounded=0;whiteSpace=wrap;html=1;" vertex="1" parent="1">
          <mxGeometry x="-1340" y="-90" width="2620" height="100" as="geometry" />
        </mxCell>
        <mxCell id="y4WzoanB2UGmF15g63pv-106" style="edgeStyle=orthogonalEdgeStyle;rounded=0;orthogonalLoop=1;jettySize=auto;html=1;entryX=0.5;entryY=0;entryDx=0;entryDy=0;" edge="1" parent="1" source="y4WzoanB2UGmF15g63pv-107" target="y4WzoanB2UGmF15g63pv-94">
          <mxGeometry relative="1" as="geometry" />
        </mxCell>
        <mxCell id="y4WzoanB2UGmF15g63pv-107" value="&lt;font style=&quot;font-size: 21px;&quot;&gt;É catalagado na base de conhecimento&lt;/font&gt;" style="rounded=0;whiteSpace=wrap;html=1;" vertex="1" parent="1">
          <mxGeometry x="-589.59" y="1850" width="240" height="110" as="geometry" />
        </mxCell>
        <mxCell id="y4WzoanB2UGmF15g63pv-108" value="Funcionou?" style="rhombus;whiteSpace=wrap;html=1;fontSize=20;" vertex="1" parent="1">
          <mxGeometry x="-592.39" y="1381" width="247" height="138" as="geometry" />
        </mxCell>
        <mxCell id="y4WzoanB2UGmF15g63pv-109" value="Não" style="edgeLabel;html=1;align=center;verticalAlign=middle;resizable=0;points=[];fontSize=25;" vertex="1" connectable="0" parent="1">
          <mxGeometry x="-425.0033333333336" y="390" as="geometry">
            <mxPoint x="3" y="232" as="offset" />
          </mxGeometry>
        </mxCell>
        <mxCell id="y4WzoanB2UGmF15g63pv-110" value="Não" style="edgeLabel;html=1;align=center;verticalAlign=middle;resizable=0;points=[];fontSize=25;" vertex="1" connectable="0" parent="1">
          <mxGeometry x="-430.0033333333336" y="620" as="geometry">
            <mxPoint x="3" y="232" as="offset" />
          </mxGeometry>
        </mxCell>
        <mxCell id="y4WzoanB2UGmF15g63pv-112" style="edgeStyle=orthogonalEdgeStyle;rounded=0;orthogonalLoop=1;jettySize=auto;html=1;entryX=1;entryY=0.5;entryDx=0;entryDy=0;" edge="1" parent="1" source="y4WzoanB2UGmF15g63pv-113" target="y4WzoanB2UGmF15g63pv-107">
          <mxGeometry relative="1" as="geometry">
            <Array as="points">
              <mxPoint x="260" y="1905" />
            </Array>
          </mxGeometry>
        </mxCell>
        <mxCell id="y4WzoanB2UGmF15g63pv-113" value="Funcionou?" style="rhombus;whiteSpace=wrap;html=1;fontSize=20;" vertex="1" parent="1">
          <mxGeometry x="136.5" y="1230" width="247" height="138" as="geometry" />
        </mxCell>
        <mxCell id="y4WzoanB2UGmF15g63pv-116" value="SIM" style="edgeLabel;html=1;align=center;verticalAlign=middle;resizable=0;points=[];fontSize=25;" vertex="1" connectable="0" parent="1">
          <mxGeometry x="280.00000000000045" y="1340.003333333333" as="geometry">
            <mxPoint x="13" y="232" as="offset" />
          </mxGeometry>
        </mxCell>
        <mxCell id="y4WzoanB2UGmF15g63pv-119" value="" style="edgeStyle=orthogonalEdgeStyle;rounded=0;orthogonalLoop=1;jettySize=auto;html=1;" edge="1" parent="1" source="y4WzoanB2UGmF15g63pv-120" target="y4WzoanB2UGmF15g63pv-122">
          <mxGeometry relative="1" as="geometry" />
        </mxCell>
        <mxCell id="y4WzoanB2UGmF15g63pv-120" value="analise tecnica do contexto do problema" style="rhombus;whiteSpace=wrap;html=1;fontSize=20;spacingTop=20;" vertex="1" parent="1">
          <mxGeometry x="131.80999999999995" y="370" width="256.39" height="153" as="geometry" />
        </mxCell>
        <mxCell id="y4WzoanB2UGmF15g63pv-121" value="" style="edgeStyle=orthogonalEdgeStyle;rounded=0;orthogonalLoop=1;jettySize=auto;html=1;" edge="1" parent="1" source="y4WzoanB2UGmF15g63pv-122" target="y4WzoanB2UGmF15g63pv-124">
          <mxGeometry relative="1" as="geometry" />
        </mxCell>
        <mxCell id="y4WzoanB2UGmF15g63pv-122" value="analise das medidas tomadas" style="rhombus;whiteSpace=wrap;html=1;fontSize=20;spacingTop=20;" vertex="1" parent="1">
          <mxGeometry x="131.80999999999995" y="570" width="256.39" height="153" as="geometry" />
        </mxCell>
        <mxCell id="y4WzoanB2UGmF15g63pv-123" value="" style="edgeStyle=orthogonalEdgeStyle;rounded=0;orthogonalLoop=1;jettySize=auto;html=1;" edge="1" parent="1" source="y4WzoanB2UGmF15g63pv-124" target="y4WzoanB2UGmF15g63pv-126">
          <mxGeometry relative="1" as="geometry" />
        </mxCell>
        <mxCell id="y4WzoanB2UGmF15g63pv-124" value="analise de ferramentas&lt;br&gt;metodos e &lt;br&gt;aplicações" style="rhombus;whiteSpace=wrap;html=1;fontSize=20;spacingTop=20;" vertex="1" parent="1">
          <mxGeometry x="131.80999999999995" y="770" width="256.39" height="153" as="geometry" />
        </mxCell>
        <mxCell id="y4WzoanB2UGmF15g63pv-125" value="" style="edgeStyle=orthogonalEdgeStyle;rounded=0;orthogonalLoop=1;jettySize=auto;html=1;" edge="1" parent="1" source="y4WzoanB2UGmF15g63pv-126" target="y4WzoanB2UGmF15g63pv-113">
          <mxGeometry relative="1" as="geometry" />
        </mxCell>
        <mxCell id="y4WzoanB2UGmF15g63pv-126" value="&lt;font style=&quot;font-size: 18px;&quot;&gt;Aplica medida para soluconar&lt;/font&gt;" style="rounded=0;whiteSpace=wrap;html=1;" vertex="1" parent="1">
          <mxGeometry x="154.75" y="1020" width="210.5" height="111" as="geometry" />
        </mxCell>
        <mxCell id="P3Yc2528soJ2CAqXvyWi-1" style="edgeStyle=orthogonalEdgeStyle;rounded=0;orthogonalLoop=1;jettySize=auto;html=1;entryX=1;entryY=0.5;entryDx=0;entryDy=0;" edge="1" parent="1" source="P3Yc2528soJ2CAqXvyWi-2" target="P3Yc2528soJ2CAqXvyWi-3">
          <mxGeometry relative="1" as="geometry" />
        </mxCell>
        <mxCell id="P3Yc2528soJ2CAqXvyWi-5" style="edgeStyle=orthogonalEdgeStyle;rounded=0;orthogonalLoop=1;jettySize=auto;html=1;" edge="1" parent="1" source="P3Yc2528soJ2CAqXvyWi-2" target="y4WzoanB2UGmF15g63pv-81">
          <mxGeometry relative="1" as="geometry" />
        </mxCell>
        <mxCell id="P3Yc2528soJ2CAqXvyWi-2" value="O cliente esta cadastrado?&lt;div&gt;&lt;br/&gt;&lt;/div&gt;" style="rhombus;whiteSpace=wrap;html=1;fontSize=20;spacingTop=20;" vertex="1" parent="1">
          <mxGeometry x="-596.84" y="379" width="256.39" height="153" as="geometry" />
        </mxCell>
        <mxCell id="P3Yc2528soJ2CAqXvyWi-6" style="edgeStyle=orthogonalEdgeStyle;rounded=0;orthogonalLoop=1;jettySize=auto;html=1;entryX=0;entryY=0.5;entryDx=0;entryDy=0;" edge="1" parent="1" source="P3Yc2528soJ2CAqXvyWi-3" target="y4WzoanB2UGmF15g63pv-108">
          <mxGeometry relative="1" as="geometry">
            <Array as="points">
              <mxPoint x="-1280" y="456" />
              <mxPoint x="-1280" y="1450" />
            </Array>
          </mxGeometry>
        </mxCell>
        <mxCell id="P3Yc2528soJ2CAqXvyWi-3" value="Fazer cadastro na página" style="rounded=0;whiteSpace=wrap;html=1;fontSize=20;" vertex="1" parent="1">
          <mxGeometry x="-1197" y="415.5" width="265" height="80" as="geometry" />
        </mxCell>
        <mxCell id="P3Yc2528soJ2CAqXvyWi-4" value="Não" style="edgeLabel;html=1;align=center;verticalAlign=middle;resizable=0;points=[];fontSize=25;" vertex="1" connectable="0" parent="1">
          <mxGeometry x="-821.9433333333336" y="196.5" as="geometry">
            <mxPoint x="3" y="232" as="offset" />
          </mxGeometry>
        </mxCell>
      </root>
    </mxGraphModel>
  </diagram>
  <diagram id="0EhmdLt53RP1k4MMHCI2" name="problema">
    <mxGraphModel dx="5039" dy="2829" grid="1" gridSize="10" guides="1" tooltips="1" connect="1" arrows="1" fold="1" page="1" pageScale="1" pageWidth="827" pageHeight="1169" math="0" shadow="0">
      <root>
        <mxCell id="0" />
        <mxCell id="1" parent="0" />
        <mxCell id="OctxdTQ-MRyi4GqLQyJ8-1" value="" style="rounded=0;whiteSpace=wrap;html=1;movable=1;resizable=1;rotatable=1;deletable=1;editable=1;locked=0;connectable=1;" parent="1" vertex="1">
          <mxGeometry x="-1352" y="8.5" width="570" height="2001.5" as="geometry" />
        </mxCell>
        <mxCell id="OctxdTQ-MRyi4GqLQyJ8-2" value="" style="rounded=0;whiteSpace=wrap;html=1;movable=1;resizable=1;rotatable=1;deletable=1;editable=1;locked=0;connectable=1;" parent="1" vertex="1">
          <mxGeometry x="-780" y="5" width="690" height="2005" as="geometry" />
        </mxCell>
        <mxCell id="OctxdTQ-MRyi4GqLQyJ8-3" value="" style="rounded=0;whiteSpace=wrap;html=1;movable=1;resizable=1;rotatable=1;deletable=1;editable=1;locked=0;connectable=1;" parent="1" vertex="1">
          <mxGeometry x="-90" y="-10" width="680" height="2020" as="geometry" />
        </mxCell>
        <mxCell id="OctxdTQ-MRyi4GqLQyJ8-4" value="" style="rounded=0;whiteSpace=wrap;html=1;movable=1;resizable=1;rotatable=1;deletable=1;editable=1;locked=0;connectable=1;" parent="1" vertex="1">
          <mxGeometry x="569" y="48" width="700" height="1962" as="geometry" />
        </mxCell>
        <mxCell id="OctxdTQ-MRyi4GqLQyJ8-5" value="CLIENTE" style="rounded=0;whiteSpace=wrap;html=1;fontSize=80;" parent="1" vertex="1">
          <mxGeometry x="-1350" y="4" width="566" height="114" as="geometry" />
        </mxCell>
        <mxCell id="OctxdTQ-MRyi4GqLQyJ8-6" value="N1" style="rounded=0;whiteSpace=wrap;html=1;fontSize=80;" parent="1" vertex="1">
          <mxGeometry x="-780" y="5" width="690" height="114" as="geometry" />
        </mxCell>
        <mxCell id="OctxdTQ-MRyi4GqLQyJ8-7" value="N2" style="rounded=0;whiteSpace=wrap;html=1;fontSize=80;" parent="1" vertex="1">
          <mxGeometry x="-90" y="5" width="660" height="114" as="geometry" />
        </mxCell>
        <mxCell id="OctxdTQ-MRyi4GqLQyJ8-8" value="N3" style="rounded=0;whiteSpace=wrap;html=1;fontSize=80;" parent="1" vertex="1">
          <mxGeometry x="570" y="5" width="700" height="114" as="geometry" />
        </mxCell>
        <mxCell id="OctxdTQ-MRyi4GqLQyJ8-9" style="edgeStyle=orthogonalEdgeStyle;rounded=0;orthogonalLoop=1;jettySize=auto;html=1;" parent="1" source="OctxdTQ-MRyi4GqLQyJ8-10" target="OctxdTQ-MRyi4GqLQyJ8-12" edge="1">
          <mxGeometry relative="1" as="geometry">
            <mxPoint x="-1049.2499999999995" y="431.49999999999955" as="targetPoint" />
          </mxGeometry>
        </mxCell>
        <mxCell id="OctxdTQ-MRyi4GqLQyJ8-10" value="&lt;font&gt;DashBoard está fora do ar&lt;/font&gt;&lt;div&gt;&lt;font&gt;cliente abre chamado&lt;/font&gt;&lt;/div&gt;" style="rounded=1;whiteSpace=wrap;html=1;arcSize=70;fontSize=20;" parent="1" vertex="1">
          <mxGeometry x="-1189.25" y="150" width="282" height="102" as="geometry" />
        </mxCell>
        <mxCell id="OctxdTQ-MRyi4GqLQyJ8-11" style="edgeStyle=orthogonalEdgeStyle;rounded=0;orthogonalLoop=1;jettySize=auto;html=1;entryX=0.5;entryY=0;entryDx=0;entryDy=0;" parent="1" source="OctxdTQ-MRyi4GqLQyJ8-12" target="OctxdTQ-MRyi4GqLQyJ8-19" edge="1">
          <mxGeometry relative="1" as="geometry" />
        </mxCell>
        <mxCell id="OctxdTQ-MRyi4GqLQyJ8-12" value="Registro, classificação e priorização do chamado" style="rounded=0;whiteSpace=wrap;html=1;fontSize=20;" parent="1" vertex="1">
          <mxGeometry x="-603.59" y="155" width="247.89" height="96" as="geometry" />
        </mxCell>
        <mxCell id="1SQwrgkz2xB4IZ-sFsMI-2" style="edgeStyle=orthogonalEdgeStyle;rounded=0;orthogonalLoop=1;jettySize=auto;html=1;entryX=0;entryY=0.5;entryDx=0;entryDy=0;" parent="1" source="OctxdTQ-MRyi4GqLQyJ8-19" edge="1">
          <mxGeometry relative="1" as="geometry">
            <mxPoint x="796.5" y="290" as="targetPoint" />
            <Array as="points">
              <mxPoint x="-180" y="471" />
              <mxPoint x="-180" y="290" />
            </Array>
          </mxGeometry>
        </mxCell>
        <mxCell id="7kQWzgUa8jYRrwSs6wUv-16" value="" style="edgeStyle=orthogonalEdgeStyle;rounded=0;orthogonalLoop=1;jettySize=auto;html=1;" parent="1" source="OctxdTQ-MRyi4GqLQyJ8-19" target="OctxdTQ-MRyi4GqLQyJ8-23" edge="1">
          <mxGeometry relative="1" as="geometry" />
        </mxCell>
        <mxCell id="OctxdTQ-MRyi4GqLQyJ8-19" value="Verifica se é um incidente recorrente ou de larga escala" style="rhombus;whiteSpace=wrap;html=1;fontSize=20;verticalAlign=middle;spacing=8;spacingTop=-5;" parent="1" vertex="1">
          <mxGeometry x="-625.34" y="368" width="291.4" height="206" as="geometry" />
        </mxCell>
        <mxCell id="OctxdTQ-MRyi4GqLQyJ8-22" style="edgeStyle=orthogonalEdgeStyle;rounded=0;orthogonalLoop=1;jettySize=auto;html=1;entryX=0.5;entryY=0;entryDx=0;entryDy=0;" parent="1" source="OctxdTQ-MRyi4GqLQyJ8-23" target="OctxdTQ-MRyi4GqLQyJ8-28" edge="1">
          <mxGeometry relative="1" as="geometry" />
        </mxCell>
        <mxCell id="-gQNYnUjjvFZ7WYdIbRk-3" style="edgeStyle=orthogonalEdgeStyle;rounded=0;orthogonalLoop=1;jettySize=auto;html=1;entryX=1;entryY=0.5;entryDx=0;entryDy=0;" edge="1" parent="1" source="OctxdTQ-MRyi4GqLQyJ8-23" target="OctxdTQ-MRyi4GqLQyJ8-24">
          <mxGeometry relative="1" as="geometry" />
        </mxCell>
        <mxCell id="OctxdTQ-MRyi4GqLQyJ8-23" value="O cliente está logado?" style="rhombus;whiteSpace=wrap;html=1;fontSize=20;spacingTop=20;" parent="1" vertex="1">
          <mxGeometry x="-607.09" y="654" width="256.39" height="153" as="geometry" />
        </mxCell>
        <mxCell id="-gQNYnUjjvFZ7WYdIbRk-5" style="edgeStyle=orthogonalEdgeStyle;rounded=0;orthogonalLoop=1;jettySize=auto;html=1;entryX=0;entryY=0.5;entryDx=0;entryDy=0;" edge="1" parent="1" source="OctxdTQ-MRyi4GqLQyJ8-24" target="OctxdTQ-MRyi4GqLQyJ8-37">
          <mxGeometry relative="1" as="geometry">
            <Array as="points">
              <mxPoint x="-1290" y="731" />
              <mxPoint x="-1290" y="1440" />
            </Array>
          </mxGeometry>
        </mxCell>
        <mxCell id="OctxdTQ-MRyi4GqLQyJ8-24" value="Fazer login na página" style="rounded=0;whiteSpace=wrap;html=1;fontSize=20;" parent="1" vertex="1">
          <mxGeometry x="-1207.25" y="690.5" width="265" height="80" as="geometry" />
        </mxCell>
        <mxCell id="OctxdTQ-MRyi4GqLQyJ8-25" value="Não" style="edgeLabel;html=1;align=center;verticalAlign=middle;resizable=0;points=[];fontSize=25;" parent="1" vertex="1" connectable="0">
          <mxGeometry x="-832.1933333333336" y="471.5" as="geometry">
            <mxPoint x="3" y="232" as="offset" />
          </mxGeometry>
        </mxCell>
        <mxCell id="7kQWzgUa8jYRrwSs6wUv-10" style="edgeStyle=orthogonalEdgeStyle;rounded=0;orthogonalLoop=1;jettySize=auto;html=1;entryX=0.5;entryY=0;entryDx=0;entryDy=0;" parent="1" source="OctxdTQ-MRyi4GqLQyJ8-28" target="OctxdTQ-MRyi4GqLQyJ8-37" edge="1">
          <mxGeometry relative="1" as="geometry">
            <mxPoint x="-479.6300000000001" y="1160" as="targetPoint" />
          </mxGeometry>
        </mxCell>
        <mxCell id="-gQNYnUjjvFZ7WYdIbRk-4" style="edgeStyle=orthogonalEdgeStyle;rounded=0;orthogonalLoop=1;jettySize=auto;html=1;entryX=1;entryY=0.5;entryDx=0;entryDy=0;" edge="1" parent="1" source="OctxdTQ-MRyi4GqLQyJ8-28" target="OctxdTQ-MRyi4GqLQyJ8-30">
          <mxGeometry relative="1" as="geometry" />
        </mxCell>
        <mxCell id="OctxdTQ-MRyi4GqLQyJ8-28" value="Cliente está conectado na internet?" style="rhombus;whiteSpace=wrap;html=1;fontSize=20;spacingTop=6;" parent="1" vertex="1">
          <mxGeometry x="-615.8300000000002" y="881" width="273.5" height="160" as="geometry" />
        </mxCell>
        <mxCell id="-gQNYnUjjvFZ7WYdIbRk-6" style="edgeStyle=orthogonalEdgeStyle;rounded=0;orthogonalLoop=1;jettySize=auto;html=1;entryX=0;entryY=0.5;entryDx=0;entryDy=0;" edge="1" parent="1" source="OctxdTQ-MRyi4GqLQyJ8-30" target="OctxdTQ-MRyi4GqLQyJ8-37">
          <mxGeometry relative="1" as="geometry">
            <Array as="points">
              <mxPoint x="-1290" y="961" />
              <mxPoint x="-1290" y="1440" />
            </Array>
          </mxGeometry>
        </mxCell>
        <mxCell id="OctxdTQ-MRyi4GqLQyJ8-30" value="Conectar a uma internet" style="rounded=0;whiteSpace=wrap;html=1;fontSize=20;" parent="1" vertex="1">
          <mxGeometry x="-1209.75" y="916.75" width="267.5" height="88.5" as="geometry" />
        </mxCell>
        <mxCell id="OctxdTQ-MRyi4GqLQyJ8-31" value="Não" style="edgeLabel;html=1;align=center;verticalAlign=middle;resizable=0;points=[];fontSize=25;" parent="1" vertex="1" connectable="0">
          <mxGeometry x="-847.2533333333336" y="672.5" as="geometry">
            <mxPoint x="3" y="232" as="offset" />
          </mxGeometry>
        </mxCell>
        <mxCell id="7kQWzgUa8jYRrwSs6wUv-17" style="edgeStyle=orthogonalEdgeStyle;rounded=0;orthogonalLoop=1;jettySize=auto;html=1;" parent="1" source="OctxdTQ-MRyi4GqLQyJ8-37" target="1SQwrgkz2xB4IZ-sFsMI-20" edge="1">
          <mxGeometry relative="1" as="geometry" />
        </mxCell>
        <mxCell id="-gQNYnUjjvFZ7WYdIbRk-1" style="edgeStyle=orthogonalEdgeStyle;rounded=0;orthogonalLoop=1;jettySize=auto;html=1;entryX=0;entryY=0.5;entryDx=0;entryDy=0;" edge="1" parent="1" source="OctxdTQ-MRyi4GqLQyJ8-37" target="-gQNYnUjjvFZ7WYdIbRk-26">
          <mxGeometry relative="1" as="geometry">
            <mxPoint x="101.52999999999975" y="551" as="targetPoint" />
            <Array as="points">
              <mxPoint x="-10" y="1440" />
              <mxPoint x="-10" y="437" />
            </Array>
          </mxGeometry>
        </mxCell>
        <mxCell id="OctxdTQ-MRyi4GqLQyJ8-37" value="Funcionou?" style="rhombus;whiteSpace=wrap;html=1;fontSize=20;" parent="1" vertex="1">
          <mxGeometry x="-602.39" y="1371" width="247" height="138" as="geometry" />
        </mxCell>
        <mxCell id="OctxdTQ-MRyi4GqLQyJ8-45" value="FIM" style="ellipse;whiteSpace=wrap;html=1;aspect=fixed;fillColor=#e51400;fontColor=#ffffff;strokeColor=#B20000;" parent="1" vertex="1">
          <mxGeometry x="-537.65" y="2050" width="116" height="116" as="geometry" />
        </mxCell>
        <mxCell id="OctxdTQ-MRyi4GqLQyJ8-49" value="Não" style="edgeLabel;html=1;align=center;verticalAlign=middle;resizable=0;points=[];fontSize=25;" parent="1" vertex="1" connectable="0">
          <mxGeometry x="-240.00333333333356" y="1180" as="geometry">
            <mxPoint x="3" y="232" as="offset" />
          </mxGeometry>
        </mxCell>
        <mxCell id="OctxdTQ-MRyi4GqLQyJ8-65" value="SIM" style="edgeLabel;html=1;align=center;verticalAlign=middle;resizable=0;points=[];fontSize=25;" parent="1" vertex="1" connectable="0">
          <mxGeometry x="-549.9999999999995" y="1330.003333333333" as="geometry">
            <mxPoint x="13" y="232" as="offset" />
          </mxGeometry>
        </mxCell>
        <mxCell id="OctxdTQ-MRyi4GqLQyJ8-66" style="edgeStyle=orthogonalEdgeStyle;rounded=0;orthogonalLoop=1;jettySize=auto;html=1;entryX=0.5;entryY=0;entryDx=0;entryDy=0;" parent="1" source="OctxdTQ-MRyi4GqLQyJ8-68" target="OctxdTQ-MRyi4GqLQyJ8-73" edge="1">
          <mxGeometry relative="1" as="geometry">
            <mxPoint x="932.5" y="647" as="targetPoint" />
          </mxGeometry>
        </mxCell>
        <mxCell id="OctxdTQ-MRyi4GqLQyJ8-67" value="Text" style="edgeLabel;html=1;align=center;verticalAlign=middle;resizable=0;points=[];" parent="OctxdTQ-MRyi4GqLQyJ8-66" vertex="1" connectable="0">
          <mxGeometry x="1" y="18" relative="1" as="geometry">
            <mxPoint x="-16" y="17" as="offset" />
          </mxGeometry>
        </mxCell>
        <mxCell id="OctxdTQ-MRyi4GqLQyJ8-68" value="Analise tecnica do incidente" style="rounded=0;whiteSpace=wrap;html=1;fontSize=20;" parent="1" vertex="1">
          <mxGeometry x="796.5" y="210" width="272" height="140" as="geometry" />
        </mxCell>
        <mxCell id="OctxdTQ-MRyi4GqLQyJ8-72" style="edgeStyle=orthogonalEdgeStyle;rounded=0;orthogonalLoop=1;jettySize=auto;html=1;entryX=0.5;entryY=0;entryDx=0;entryDy=0;" parent="1" source="OctxdTQ-MRyi4GqLQyJ8-73" edge="1" target="1SQwrgkz2xB4IZ-sFsMI-14">
          <mxGeometry relative="1" as="geometry">
            <Array as="points" />
            <mxPoint x="932.5" y="1041" as="targetPoint" />
          </mxGeometry>
        </mxCell>
        <mxCell id="OctxdTQ-MRyi4GqLQyJ8-73" value="Crição de uma medida provisoria" style="rounded=0;whiteSpace=wrap;html=1;fontSize=20;" parent="1" vertex="1">
          <mxGeometry x="796.5" y="741" width="272" height="140" as="geometry" />
        </mxCell>
        <mxCell id="1SQwrgkz2xB4IZ-sFsMI-1" value="&lt;font style=&quot;font-size: 70px;&quot;&gt;PROBLEMA&lt;/font&gt;" style="rounded=0;whiteSpace=wrap;html=1;" parent="1" vertex="1">
          <mxGeometry x="-1350" y="-100" width="2620" height="100" as="geometry" />
        </mxCell>
        <mxCell id="1SQwrgkz2xB4IZ-sFsMI-4" value="SIM" style="edgeLabel;html=1;align=center;verticalAlign=middle;resizable=0;points=[];fontSize=25;" parent="1" vertex="1" connectable="0">
          <mxGeometry x="-229.99999999999957" y="140.00333333333322" as="geometry">
            <mxPoint x="13" y="232" as="offset" />
          </mxGeometry>
        </mxCell>
        <mxCell id="-gQNYnUjjvFZ7WYdIbRk-18" style="edgeStyle=orthogonalEdgeStyle;rounded=0;orthogonalLoop=1;jettySize=auto;html=1;entryX=0.5;entryY=0;entryDx=0;entryDy=0;" edge="1" parent="1" source="1SQwrgkz2xB4IZ-sFsMI-14" target="-gQNYnUjjvFZ7WYdIbRk-17">
          <mxGeometry relative="1" as="geometry" />
        </mxCell>
        <mxCell id="1SQwrgkz2xB4IZ-sFsMI-14" value="N3 vai atrás da raiz do problema para resolve-lá de forma permanente" style="whiteSpace=wrap;html=1;fontSize=20;rounded=0;" parent="1" vertex="1">
          <mxGeometry x="770" y="1140" width="325" height="130" as="geometry" />
        </mxCell>
        <mxCell id="7kQWzgUa8jYRrwSs6wUv-15" style="edgeStyle=orthogonalEdgeStyle;rounded=0;orthogonalLoop=1;jettySize=auto;html=1;entryX=0.5;entryY=0;entryDx=0;entryDy=0;" parent="1" source="1SQwrgkz2xB4IZ-sFsMI-20" target="OctxdTQ-MRyi4GqLQyJ8-45" edge="1">
          <mxGeometry relative="1" as="geometry" />
        </mxCell>
        <mxCell id="1SQwrgkz2xB4IZ-sFsMI-20" value="&lt;font style=&quot;font-size: 21px;&quot;&gt;É catalagado na base de conhecimento&lt;/font&gt;" style="rounded=0;whiteSpace=wrap;html=1;" parent="1" vertex="1">
          <mxGeometry x="-599.59" y="1840" width="240" height="110" as="geometry" />
        </mxCell>
        <mxCell id="-gQNYnUjjvFZ7WYdIbRk-9" value="Funcionou?" style="rhombus;whiteSpace=wrap;html=1;fontSize=20;" vertex="1" parent="1">
          <mxGeometry x="-602.39" y="1371" width="247" height="138" as="geometry" />
        </mxCell>
        <mxCell id="-gQNYnUjjvFZ7WYdIbRk-12" value="Não" style="edgeLabel;html=1;align=center;verticalAlign=middle;resizable=0;points=[];fontSize=25;" vertex="1" connectable="0" parent="1">
          <mxGeometry x="-435.0033333333336" y="380" as="geometry">
            <mxPoint x="3" y="232" as="offset" />
          </mxGeometry>
        </mxCell>
        <mxCell id="-gQNYnUjjvFZ7WYdIbRk-13" value="Não" style="edgeLabel;html=1;align=center;verticalAlign=middle;resizable=0;points=[];fontSize=25;" vertex="1" connectable="0" parent="1">
          <mxGeometry x="-440.0033333333336" y="610" as="geometry">
            <mxPoint x="3" y="232" as="offset" />
          </mxGeometry>
        </mxCell>
        <mxCell id="IhuPHGVxwSJ7AwGqLpII-1" style="edgeStyle=orthogonalEdgeStyle;rounded=0;orthogonalLoop=1;jettySize=auto;html=1;entryX=0;entryY=0.5;entryDx=0;entryDy=0;" edge="1" parent="1" source="-gQNYnUjjvFZ7WYdIbRk-14" target="OctxdTQ-MRyi4GqLQyJ8-68">
          <mxGeometry relative="1" as="geometry">
            <mxPoint x="790" y="284" as="targetPoint" />
            <Array as="points">
              <mxPoint x="680" y="1289" />
              <mxPoint x="680" y="290" />
              <mxPoint x="796" y="290" />
            </Array>
          </mxGeometry>
        </mxCell>
        <mxCell id="IhuPHGVxwSJ7AwGqLpII-2" style="edgeStyle=orthogonalEdgeStyle;rounded=0;orthogonalLoop=1;jettySize=auto;html=1;entryX=1;entryY=0.5;entryDx=0;entryDy=0;" edge="1" parent="1" source="-gQNYnUjjvFZ7WYdIbRk-14" target="1SQwrgkz2xB4IZ-sFsMI-20">
          <mxGeometry relative="1" as="geometry">
            <Array as="points">
              <mxPoint x="250" y="1895" />
            </Array>
          </mxGeometry>
        </mxCell>
        <mxCell id="-gQNYnUjjvFZ7WYdIbRk-14" value="Funcionou?" style="rhombus;whiteSpace=wrap;html=1;fontSize=20;" vertex="1" parent="1">
          <mxGeometry x="126.5" y="1220" width="247" height="138" as="geometry" />
        </mxCell>
        <mxCell id="-gQNYnUjjvFZ7WYdIbRk-19" style="edgeStyle=orthogonalEdgeStyle;rounded=0;orthogonalLoop=1;jettySize=auto;html=1;entryX=1;entryY=0.5;entryDx=0;entryDy=0;" edge="1" parent="1" source="-gQNYnUjjvFZ7WYdIbRk-17" target="1SQwrgkz2xB4IZ-sFsMI-20">
          <mxGeometry relative="1" as="geometry">
            <Array as="points">
              <mxPoint x="933" y="1895" />
            </Array>
          </mxGeometry>
        </mxCell>
        <mxCell id="-gQNYnUjjvFZ7WYdIbRk-17" value="Funcionou?" style="rhombus;whiteSpace=wrap;html=1;fontSize=20;" vertex="1" parent="1">
          <mxGeometry x="809" y="1410" width="247" height="138" as="geometry" />
        </mxCell>
        <mxCell id="-gQNYnUjjvFZ7WYdIbRk-21" value="SIM" style="edgeLabel;html=1;align=center;verticalAlign=middle;resizable=0;points=[];fontSize=25;" vertex="1" connectable="0" parent="1">
          <mxGeometry x="270.00000000000045" y="1330.003333333333" as="geometry">
            <mxPoint x="13" y="232" as="offset" />
          </mxGeometry>
        </mxCell>
        <mxCell id="-gQNYnUjjvFZ7WYdIbRk-22" value="SIM" style="edgeLabel;html=1;align=center;verticalAlign=middle;resizable=0;points=[];fontSize=25;" vertex="1" connectable="0" parent="1">
          <mxGeometry x="960.0000000000005" y="1480.003333333333" as="geometry">
            <mxPoint x="13" y="232" as="offset" />
          </mxGeometry>
        </mxCell>
        <mxCell id="-gQNYnUjjvFZ7WYdIbRk-24" value="Não" style="edgeLabel;html=1;align=center;verticalAlign=middle;resizable=0;points=[];fontSize=25;" vertex="1" connectable="0" parent="1">
          <mxGeometry x="439.99666666666644" y="980" as="geometry">
            <mxPoint x="3" y="232" as="offset" />
          </mxGeometry>
        </mxCell>
        <mxCell id="-gQNYnUjjvFZ7WYdIbRk-28" value="" style="edgeStyle=orthogonalEdgeStyle;rounded=0;orthogonalLoop=1;jettySize=auto;html=1;" edge="1" parent="1" source="-gQNYnUjjvFZ7WYdIbRk-26" target="-gQNYnUjjvFZ7WYdIbRk-27">
          <mxGeometry relative="1" as="geometry" />
        </mxCell>
        <mxCell id="-gQNYnUjjvFZ7WYdIbRk-26" value="analise tecnica do contexto do problema" style="rhombus;whiteSpace=wrap;html=1;fontSize=20;spacingTop=20;" vertex="1" parent="1">
          <mxGeometry x="121.80999999999995" y="360" width="256.39" height="153" as="geometry" />
        </mxCell>
        <mxCell id="-gQNYnUjjvFZ7WYdIbRk-30" value="" style="edgeStyle=orthogonalEdgeStyle;rounded=0;orthogonalLoop=1;jettySize=auto;html=1;" edge="1" parent="1" source="-gQNYnUjjvFZ7WYdIbRk-27" target="-gQNYnUjjvFZ7WYdIbRk-29">
          <mxGeometry relative="1" as="geometry" />
        </mxCell>
        <mxCell id="-gQNYnUjjvFZ7WYdIbRk-27" value="analise das medidas tomadas" style="rhombus;whiteSpace=wrap;html=1;fontSize=20;spacingTop=20;" vertex="1" parent="1">
          <mxGeometry x="121.80999999999995" y="560" width="256.39" height="153" as="geometry" />
        </mxCell>
        <mxCell id="-gQNYnUjjvFZ7WYdIbRk-32" value="" style="edgeStyle=orthogonalEdgeStyle;rounded=0;orthogonalLoop=1;jettySize=auto;html=1;" edge="1" parent="1" source="-gQNYnUjjvFZ7WYdIbRk-29" target="-gQNYnUjjvFZ7WYdIbRk-31">
          <mxGeometry relative="1" as="geometry" />
        </mxCell>
        <mxCell id="-gQNYnUjjvFZ7WYdIbRk-29" value="analise de ferramentas&lt;br&gt;metodos e &lt;br&gt;aplicações" style="rhombus;whiteSpace=wrap;html=1;fontSize=20;spacingTop=20;" vertex="1" parent="1">
          <mxGeometry x="121.80999999999995" y="760" width="256.39" height="153" as="geometry" />
        </mxCell>
        <mxCell id="-gQNYnUjjvFZ7WYdIbRk-33" value="" style="edgeStyle=orthogonalEdgeStyle;rounded=0;orthogonalLoop=1;jettySize=auto;html=1;" edge="1" parent="1" source="-gQNYnUjjvFZ7WYdIbRk-31" target="-gQNYnUjjvFZ7WYdIbRk-14">
          <mxGeometry relative="1" as="geometry" />
        </mxCell>
        <mxCell id="-gQNYnUjjvFZ7WYdIbRk-31" value="&lt;font style=&quot;font-size: 18px;&quot;&gt;Aplica medida para soluconar&lt;/font&gt;" style="rounded=0;whiteSpace=wrap;html=1;" vertex="1" parent="1">
          <mxGeometry x="144.75" y="1010" width="210.5" height="111" as="geometry" />
        </mxCell>
      </root>
    </mxGraphModel>
  </diagram>
</mxfile>
